<?xml version="1.0" standalone="no"?>
<!DOCTYPE svg PUBLIC "-//W3C//DTD SVG 20010904//EN"
 "http://www.w3.org/TR/2001/REC-SVG-20010904/DTD/svg10.dtd">
<svg version="1.0" xmlns="http://www.w3.org/2000/svg"
 width="722.000000pt" height="722.000000pt" viewBox="0 0 722.000000 722.000000"
 preserveAspectRatio="xMidYMid meet">
<metadata>
Created by potrace 1.11, written by Peter Selinger 2001-2013
</metadata>
<g transform="translate(0.000000,722.000000) scale(0.100000,-0.100000)"
fill="#000000" stroke="none">
<path d="M3540 7209 c0 -4 7 -6 15 -3 8 4 15 1 15 -6 0 -6 -4 -8 -10 -5 -5 3
-10 -2 -11 -12 0 -14 -2 -14 -9 5 -10 24 -38 29 -59 10 -10 -9 -12 -9 -7 -1 4
8 -3 11 -23 11 l-30 -1 20 -29 c21 -29 19 -57 -6 -78 -11 -9 -15 -9 -15 -1 0
6 5 11 11 11 5 0 7 5 4 10 -3 6 -1 10 4 10 36 0 -20 74 -59 78 -23 2 -24 1 -6
-10 58 -39 60 -43 44 -67 l-16 -23 -7 22 c-4 12 -4 24 -1 27 3 4 6 -1 6 -11 0
-9 4 -15 10 -11 14 8 1 33 -21 40 -10 4 -26 13 -34 21 -9 9 -20 12 -27 7 -7
-4 -20 -8 -28 -8 -26 0 -21 -29 7 -47 16 -10 23 -18 16 -18 -6 0 -15 5 -18 10
-11 18 -22 11 -20 -12 1 -13 3 -23 4 -23 1 0 4 -36 6 -80 3 -44 7 -96 10 -115
3 -19 6 -40 7 -47 1 -7 5 -10 10 -7 4 3 8 0 8 -5 0 -6 -4 -11 -9 -11 -6 0 -8
-12 -7 -27 2 -16 4 -36 5 -45 0 -10 5 -18 11 -18 5 0 7 8 4 18 -5 15 -4 15 8
2 14 -17 48 -15 60 4 6 8 8 8 8 0 0 -8 42 -11 139 -11 116 1 137 3 123 14 -9
7 -24 13 -32 13 -10 1 -11 3 -3 7 7 2 26 -5 41 -16 30 -21 71 -24 73 -6 5 40
4 75 -3 75 -4 0 -8 5 -8 11 0 5 5 7 10 4 6 -3 10 -3 10 2 0 8 -67 57 -82 59
-4 1 -12 2 -18 3 -5 0 -10 9 -10 18 0 14 -2 15 -12 4 -11 -10 -8 -16 11 -32
13 -10 19 -19 14 -19 -6 0 -20 -9 -33 -20 -28 -25 -32 -25 -58 -2 l-22 19 26
12 c17 7 31 8 44 1 29 -16 37 -11 14 8 -19 16 -20 20 -7 38 14 19 14 18 33 -6
11 -14 20 -21 20 -17 0 4 9 3 20 -3 11 -6 20 -7 20 -3 0 11 -37 43 -50 43 -6
0 -10 5 -10 10 0 7 6 7 18 1 38 -23 54 -41 49 -55 -7 -17 20 -43 31 -31 4 4 1
10 -5 12 -7 3 -13 9 -13 14 0 6 5 7 10 4 6 -3 10 -1 10 4 0 6 -6 11 -12 11 -9
0 -9 3 1 9 8 5 11 16 8 24 -3 8 0 20 6 26 6 6 7 11 1 11 -20 0 -34 -23 -23
-37 8 -9 8 -13 0 -13 -6 0 -11 5 -11 11 0 5 -6 7 -12 3 -8 -5 -7 0 2 12 27 34
37 43 44 37 3 -4 6 1 6 10 0 23 -13 21 -35 -3 -10 -11 -20 -18 -23 -15 -3 3 8
16 24 30 22 19 29 34 30 65 1 22 -2 37 -7 34 -5 -2 -16 4 -26 16 -22 25 -37
26 -23 1 13 -25 13 -24 -9 -49 -10 -12 -21 -19 -25 -15 -3 3 -6 1 -6 -5 0 -7
-5 -12 -11 -12 -5 0 -8 4 -5 9 4 5 3 11 -1 14 -5 2 -3 2 4 1 7 -2 22 5 34 15
l22 18 -21 31 c-12 16 -22 34 -22 39 0 4 5 0 11 -10 7 -13 15 -15 28 -8 10 6
23 6 31 1 15 -9 30 -4 30 9 0 5 -17 8 -37 7 -21 -1 -42 0 -48 3 -17 10 -145
10 -145 0z m59 -17 c-6 -10 -26 -28 -45 -40 -19 -12 -34 -28 -34 -35 0 -8 -4
-7 -10 3 -5 8 -10 20 -10 25 0 6 4 4 8 -3 6 -9 19 -1 48 26 42 42 61 52 43 24z
m70 -17 c13 -20 21 -38 17 -42 -3 -3 -6 -1 -6 5 0 6 -12 24 -26 41 -14 17 -22
31 -17 31 4 0 19 -16 32 -35z m-332 3 c-3 -8 -6 -5 -6 6 -1 11 2 17 5 13 3 -3
4 -12 1 -19z m138 -7 c-6 -5 -25 10 -25 20 0 5 6 4 14 -3 8 -7 12 -15 11 -17z
m42 22 c-9 -2 -15 -9 -11 -14 3 -5 10 -7 15 -4 5 4 9 1 9 -4 0 -13 -10 -14
-29 -2 -17 11 -6 31 17 30 15 -1 15 -2 -1 -6z m108 -13 c-3 -5 -1 -10 6 -10 6
0 18 -8 25 -17 23 -31 15 -32 -16 -3 -32 30 -37 40 -19 40 5 0 7 -4 4 -10z
m-270 -34 c20 -11 24 -16 13 -16 -10 0 -18 -4 -18 -10 0 -5 -5 -10 -11 -10 -8
0 -8 4 0 14 10 12 8 17 -8 26 -12 6 -21 16 -21 23 0 9 2 9 8 0 4 -6 21 -19 37
-27z m25 13 c0 -4 -7 -6 -15 -3 -8 4 -15 10 -15 15 0 4 7 6 15 3 8 -4 15 -10
15 -15z m110 -9 c0 -5 -2 -10 -4 -10 -3 0 -8 5 -11 10 -3 6 -1 10 4 10 6 0 11
-4 11 -10z m120 -1 c0 -5 4 -8 9 -5 5 3 14 -1 21 -9 9 -10 9 -15 1 -15 -6 0
-11 4 -11 9 0 16 -28 6 -48 -17 -11 -12 -23 -22 -27 -22 -5 0 2 11 15 25 26
27 12 35 -15 9 -9 -9 -18 -14 -22 -11 -5 6 55 47 70 47 4 0 7 -5 7 -11z m-293
-70 c-6 -10 -13 -16 -16 -14 -2 3 2 11 9 20 10 12 9 16 -4 21 -9 3 -16 11 -16
17 0 5 9 2 19 -7 16 -15 18 -22 8 -37z m181 30 c7 -12 16 -18 19 -15 4 3 15
-1 25 -11 17 -15 19 -15 36 0 10 10 22 17 27 17 4 0 -2 -9 -15 -20 l-23 -20
27 -34 c31 -42 32 -46 6 -76 -11 -13 -20 -18 -20 -12 0 6 8 18 17 27 20 21 5
52 -22 47 -9 -2 -24 6 -32 17 -8 12 -18 19 -23 16 -5 -3 -15 2 -24 11 -9 8
-21 12 -27 8 -8 -5 -7 -10 5 -16 9 -5 16 -13 16 -19 0 -5 -10 0 -22 11 -19 18
-20 22 -8 30 20 13 26 12 42 -2 7 -7 20 -14 28 -16 7 -2 19 -11 26 -20 7 -9
15 -14 19 -10 8 8 -44 62 -65 66 -8 2 -18 9 -22 15 -6 8 -10 9 -15 2 -5 -6
-22 -21 -40 -33 -20 -14 -30 -28 -27 -37 6 -13 -46 -68 -55 -59 -2 2 9 15 24
29 16 13 26 27 23 30 -4 4 -16 -3 -27 -14 -12 -12 -21 -17 -21 -12 0 6 27 31
60 56 33 25 60 50 60 56 0 16 15 10 28 -12z m256 5 c5 -14 4 -15 -9 -4 -17 14
-19 20 -6 20 5 0 12 -7 15 -16z m-364 -9 c0 -8 -2 -15 -4 -15 -2 0 -6 7 -10
15 -3 8 -1 15 4 15 6 0 10 -7 10 -15z m235 5 c3 -6 -1 -7 -9 -4 -18 7 -21 14
-7 14 6 0 13 -4 16 -10z m80 -35 c-16 -13 -27 -27 -23 -30 3 -3 20 6 37 21 18
14 34 24 36 22 3 -2 -13 -18 -34 -34 -37 -27 -38 -30 -24 -46 10 -11 12 -18 5
-18 -7 0 -12 4 -12 10 0 5 -6 7 -14 4 -8 -3 -17 -1 -21 5 -3 7 0 8 9 5 12 -4
14 0 10 20 -3 20 2 32 23 50 16 14 30 22 32 20 2 -2 -9 -15 -24 -29z m-335 13
c0 -6 -3 -8 -6 -5 -8 7 -44 -31 -44 -45 0 -9 69 39 82 57 5 6 8 6 8 -1 0 -7
-12 -19 -26 -29 -37 -24 -64 -48 -64 -58 0 -4 5 -5 10 -2 6 3 10 2 10 -4 0 -5
-6 -12 -12 -15 -10 -5 -10 -7 0 -12 6 -3 12 -10 12 -15 0 -6 -4 -8 -9 -4 -5 3
-12 -3 -14 -12 -3 -10 -4 -1 -3 19 2 20 0 42 -5 49 -8 14 3 42 29 72 17 20 32
22 32 5z m270 -2 c0 -3 -4 -8 -10 -11 -5 -3 -10 -1 -10 4 0 6 5 11 10 11 6 0
10 -2 10 -4z m-30 -21 c0 -8 -4 -15 -10 -15 -5 0 -7 7 -4 15 4 8 8 15 10 15 2
0 4 -7 4 -15z m40 -5 c-8 -5 -19 -10 -25 -10 -5 0 -3 5 5 10 8 5 20 10 25 10
6 0 3 -5 -5 -10z m-206 -43 c-1 -15 3 -27 8 -27 6 0 7 -8 3 -17 -16 -41 -16
-47 2 -27 16 18 22 19 36 9 15 -11 14 -16 -19 -50 -28 -30 -38 -35 -44 -25 -5
8 -7 17 -5 20 2 4 -5 13 -16 20 -10 8 -19 19 -19 24 0 5 11 -1 25 -14 26 -25
36 -12 10 14 -19 19 -20 32 0 16 12 -10 14 -7 12 17 -1 15 -6 31 -12 35 -6 5
-5 8 3 8 6 0 12 5 12 11 0 5 -4 7 -10 4 -5 -3 -10 -1 -10 5 0 7 6 10 13 7 6
-2 12 -16 11 -30z m216 23 c0 -5 -5 -10 -11 -10 -5 0 -7 5 -4 10 3 6 8 10 11
10 2 0 4 -4 4 -10z m-34 -9 c-4 -5 -1 -12 4 -14 6 -3 5 -4 -2 -3 -15 3 -23 26
-8 26 6 0 9 -4 6 -9z m-147 -26 c1 5 8 -1 17 -13 13 -18 19 -21 30 -11 10 8
14 8 14 0 0 -6 -5 -11 -11 -11 -5 0 -7 -6 -3 -12 7 -12 -4 -5 -48 32 -10 8
-18 21 -17 30 0 10 3 9 9 -5 5 -11 9 -16 9 -10z m49 5 c15 0 15 -2 2 -10 -15
-9 -30 4 -29 25 0 6 3 4 6 -2 2 -7 12 -13 21 -13z m62 -17 c-1 -12 -30 -48
-31 -37 0 5 -4 0 -9 -11 -7 -17 -9 -17 -9 -3 -1 10 8 22 19 28 11 6 18 15 15
21 -4 5 -1 9 4 9 6 0 11 -3 11 -7z m60 -3 c0 -5 -2 -10 -4 -10 -3 0 -8 5 -11
10 -3 6 -1 10 4 10 6 0 11 -4 11 -10z m-265 -30 c-17 -19 -17 -21 0 -40 10
-11 15 -20 11 -20 -4 0 0 -7 9 -16 9 -9 23 -27 31 -40 10 -15 22 -21 32 -17
15 5 15 4 1 -8 -8 -8 -23 -22 -32 -32 -9 -10 -17 -14 -17 -8 0 5 7 16 15 24
12 13 10 20 -20 53 l-35 39 -20 -24 c-11 -13 -20 -19 -20 -13 0 13 28 42 41
42 5 0 1 10 -11 22 -20 21 -28 44 -12 34 5 -3 15 4 22 14 8 11 16 17 19 15 2
-3 -4 -14 -14 -25z m-40 -30 c3 -5 1 -10 -4 -10 -6 0 -11 5 -11 10 0 6 2 10 4
10 3 0 8 -4 11 -10z m179 -12 c-6 -21 -6 -22 12 -8 10 8 22 20 26 25 5 6 8 5
8 -2 0 -7 -9 -17 -21 -24 l-21 -11 23 -24 c12 -13 19 -24 14 -24 -4 0 -16 10
-27 22 -20 23 -48 33 -48 17 0 -5 -5 -9 -11 -9 -8 0 -8 5 1 15 7 8 16 13 20
10 5 -3 11 4 15 15 3 11 9 20 11 20 3 0 2 -10 -2 -22z m-183 -27 c-10 -11 -19
-13 -23 -7 -13 18 -9 24 16 24 22 0 22 -2 7 -17z m346 -8 c-1 -14 -8 -28 -15
-29 -7 -1 -8 0 -2 3 5 2 10 9 10 14 0 6 -4 7 -10 4 -14 -9 -12 3 3 20 16 19
16 19 14 -12z m38 -4 c11 -16 1 -19 -13 -3 -7 8 -8 14 -3 14 5 0 13 -5 16 -11z
m-205 -3 c0 -2 -7 -7 -16 -10 -8 -3 -12 -2 -9 4 6 10 25 14 25 6z m105 -38
l-26 -23 21 -22 c11 -13 17 -23 12 -23 -6 0 -17 11 -25 23 -15 22 -14 26 11
54 15 16 28 26 30 22 2 -5 -8 -19 -23 -31z m-240 22 c-3 -5 0 -10 8 -10 18 0
29 -24 20 -45 -7 -21 -27 -13 -30 11 -3 19 -3 19 5 0 7 -16 10 -17 17 -6 6 9
1 18 -13 28 -23 15 -29 32 -11 32 5 0 7 -4 4 -10z m87 3 c-6 -2 -10 -9 -6 -14
3 -5 0 -9 -5 -9 -12 0 -14 13 -4 23 3 4 11 7 17 6 6 0 5 -3 -2 -6z m238 -8 c0
-8 -4 -15 -10 -15 -5 0 -7 7 -4 15 4 8 8 15 10 15 2 0 4 -7 4 -15z m-170 -10
c7 -9 11 -17 8 -20 -2 -2 -12 4 -21 15 -9 11 -13 20 -8 20 5 0 14 -7 21 -15z
m-40 -5 c0 -5 -2 -10 -4 -10 -3 0 -8 5 -11 10 -3 6 -1 10 4 10 6 0 11 -4 11
-10z m82 -7 c-6 -3 -10 -9 -6 -14 3 -5 0 -9 -5 -9 -6 0 -11 4 -11 8 0 12 23
32 29 25 3 -3 0 -8 -7 -10z m156 -8 c-3 -3 -9 2 -12 12 -6 14 -5 15 5 6 7 -7
10 -15 7 -18z m-372 -7 c-1 -13 4 -28 13 -35 18 -14 3 -17 -18 -4 -7 5 -10 14
-7 20 4 6 0 14 -9 17 -13 6 -14 8 -3 15 21 14 28 10 24 -13z m164 -13 c0 -5
-5 -3 -10 5 -5 8 -10 20 -10 25 0 6 5 3 10 -5 5 -8 10 -19 10 -25z m134 20
c-4 -8 -8 -15 -10 -15 -2 0 -4 7 -4 15 0 8 4 15 10 15 5 0 7 -7 4 -15z m-24
-5 c0 -5 -5 -10 -11 -10 -5 0 -7 5 -4 10 3 6 8 10 11 10 2 0 4 -4 4 -10z m50
0 c-8 -5 -12 -12 -8 -15 3 -3 13 1 22 10 9 9 16 12 16 7 0 -18 -30 -36 -42
-24 -12 12 -3 32 15 32 7 0 6 -4 -3 -10z m-160 -46 c0 -4 -9 1 -20 11 -11 10
-20 23 -20 28 0 6 9 1 20 -11 11 -12 20 -24 20 -28z m-190 26 c0 -5 -2 -10 -4
-10 -3 0 -8 5 -11 10 -3 6 -1 10 4 10 6 0 11 -4 11 -10z m150 -15 c14 -19 14
-19 -2 -6 -12 9 -18 10 -18 2 0 -6 -5 -11 -10 -11 -6 0 -5 8 2 20 7 10 13 18
13 17 0 -1 7 -11 15 -22z m65 15 c3 -5 1 -10 -4 -10 -6 0 -11 5 -11 10 0 6 2
10 4 10 3 0 8 -4 11 -10z m180 -10 c-10 -11 -20 -18 -23 -16 -5 6 21 35 32 36
5 0 1 -9 -9 -20z m-147 -2 c-3 -7 -12 -14 -22 -14 -13 -2 -13 -1 -1 3 8 2 13
9 10 14 -4 5 -1 9 5 9 7 0 10 -6 8 -12z"/>
<path d="M3450 6921 c-11 -16 -16 -32 -12 -35 5 -3 15 6 22 19 7 14 17 25 22
25 4 0 8 5 8 10 0 19 -19 10 -40 -19z"/>
<path d="M3734 7172 c19 -21 36 -21 36 0 0 6 -3 8 -6 5 -4 -3 -16 -1 -28 5
-21 11 -21 11 -2 -10z"/>
<path d="M4209 7143 c0 -10 -2 -29 -5 -43 -11 -63 -10 -75 11 -72 16 2 17 1 5
-7 -8 -5 -18 -8 -22 -5 -7 4 -11 -8 -23 -68 -2 -10 1 -18 6 -18 5 0 9 -5 9
-11 0 -5 -4 -8 -9 -5 -5 3 -11 -11 -14 -31 -4 -22 -2 -40 4 -44 8 -4 7 -8 -1
-11 -11 -3 -14 -15 -24 -83 -2 -11 2 -23 8 -27 16 -11 28 -10 21 2 -3 6 -2 10
4 10 5 0 11 -5 13 -12 6 -17 51 -17 65 1 10 14 11 13 6 -6 -4 -18 -1 -23 15
-23 12 0 24 4 27 10 3 5 16 15 28 20 22 10 22 10 0 -6 -23 -16 -33 -41 -13
-29 6 4 17 2 25 -5 7 -6 31 -12 53 -13 23 0 38 -5 36 -9 -3 -4 2 -8 11 -8 8 0
18 6 21 14 3 8 15 16 27 20 20 5 20 4 5 -8 -10 -7 -14 -17 -10 -21 4 -5 1 -5
-5 -1 -7 4 -13 3 -13 -2 0 -5 33 -18 73 -29 65 -18 73 -18 84 -4 10 14 11 13
7 -5 -4 -17 2 -23 35 -34 23 -7 42 -11 44 -9 1 2 9 25 18 51 12 34 13 50 5 59
-8 9 -7 11 6 6 23 -8 32 32 10 50 -15 13 -15 13 6 8 12 -4 21 -3 20 2 -1 4 3
18 10 29 6 12 8 24 4 28 -3 4 0 11 8 17 13 8 13 11 -3 23 -16 12 -16 14 -2 20
9 3 13 2 10 -4 -3 -6 -2 -10 2 -10 5 0 15 16 22 35 10 29 10 39 0 51 -10 12
-9 13 3 9 10 -4 17 2 22 17 8 30 8 43 -1 35 -3 -4 -11 -3 -17 2 -6 5 -28 14
-49 21 -33 10 -41 10 -56 -4 -15 -14 -18 -14 -18 -1 0 8 4 12 9 9 4 -3 8 -1 8
4 0 15 -30 23 -30 9 0 -7 -5 -4 -11 5 -5 10 -16 15 -24 12 -8 -4 -15 -1 -15 5
0 6 -7 11 -16 11 -8 0 -12 -4 -9 -10 3 -5 1 -10 -4 -10 -6 0 -11 8 -11 18 0
13 -2 14 -9 4 -7 -11 -9 -10 -14 3 -4 9 -12 15 -19 14 -7 -1 -21 1 -31 6 -12
5 -22 2 -32 -11 -13 -18 -14 -18 -8 4 3 13 1 22 -6 22 -7 0 -9 -5 -5 -12 4 -7
-1 -6 -12 3 -27 23 -71 32 -77 16 -4 -9 -6 -9 -6 1 -1 7 -5 10 -11 7 -5 -3
-10 -1 -10 5 0 6 -4 9 -8 6 -4 -2 -14 -1 -22 4 -9 5 -20 4 -29 -3 -10 -8 -13
-8 -8 -1 4 7 -5 14 -24 18 -52 10 -69 7 -70 -11z m61 -1 c0 -5 -7 -9 -15 -9
-8 0 -12 4 -9 9 3 4 9 8 15 8 5 0 9 -4 9 -8z m52 -34 c-7 -7 -12 -8 -12 -2 0
14 12 26 19 19 2 -3 -1 -11 -7 -17z m28 -3 c0 -8 -4 -15 -10 -15 -5 0 -7 7 -4
15 4 8 8 15 10 15 2 0 4 -7 4 -15z m35 -13 c-3 -3 -11 0 -18 7 -9 10 -8 11 6
5 10 -3 15 -9 12 -12z m65 3 c0 -8 -2 -15 -4 -15 -2 0 -6 7 -10 15 -3 8 -1 15
4 15 6 0 10 -7 10 -15z m-45 -14 c-3 -6 -11 -11 -16 -11 -5 0 -4 6 3 14 14 16
24 13 13 -3z m-115 0 c0 -6 -4 -12 -8 -15 -5 -3 -9 1 -9 9 0 8 4 15 9 15 4 0
8 -4 8 -9z m237 -10 c0 -11 -5 -18 -9 -15 -4 3 -5 11 -1 19 7 21 12 19 10 -4z
m-274 -12 c5 -3 2 -9 -5 -12 -9 -3 -14 3 -15 15 -1 11 1 16 5 12 4 -5 11 -12
15 -15z m112 11 c3 -6 -1 -7 -9 -4 -18 7 -21 14 -7 14 6 0 13 -4 16 -10z m189
-15 c-9 -14 -18 -25 -20 -25 -7 0 10 35 20 42 17 12 17 9 0 -17z m-227 9 c-3
-3 -12 -4 -19 -1 -8 3 -5 6 6 6 11 1 17 -2 13 -5z m157 -16 c-5 -8 -1 -9 12
-4 14 5 16 4 7 -4 -8 -9 -16 -9 -30 -1 -10 6 -13 11 -5 11 7 0 10 5 6 12 -4 7
-3 8 5 4 6 -4 8 -12 5 -18z m-194 -8 c0 -5 -4 -10 -10 -10 -5 0 -10 5 -10 10
0 6 5 10 10 10 6 0 10 -4 10 -10z m87 4 c-3 -3 -12 -4 -19 -1 -8 3 -5 6 6 6
11 1 17 -2 13 -5z m70 0 c-3 -3 -12 -4 -19 -1 -8 3 -5 6 6 6 11 1 17 -2 13 -5z
m173 -10 c0 -2 -7 -4 -15 -4 -8 0 -15 4 -15 10 0 5 7 7 15 4 8 -4 15 -8 15
-10z m-43 -16 c-3 -8 -6 -5 -6 6 -1 11 2 17 5 13 3 -3 4 -12 1 -19z m-323 -3
c-4 -8 -13 -15 -22 -15 -13 0 -12 3 4 15 24 18 25 18 18 0z m101 5 c3 -6 -1
-7 -9 -4 -18 7 -21 14 -7 14 6 0 13 -4 16 -10z m29 -5 c-4 -8 -8 -15 -10 -15
-2 0 -4 7 -4 15 0 8 4 15 10 15 5 0 7 -7 4 -15z m46 5 c0 -5 -2 -10 -4 -10 -3
0 -8 5 -11 10 -3 6 -1 10 4 10 6 0 11 -4 11 -10z m40 6 c0 -3 -4 -8 -10 -11
-5 -3 -10 -1 -10 4 0 6 5 11 10 11 6 0 10 -2 10 -4z m55 -5 c3 -6 -5 -15 -17
-21 -21 -10 -21 -10 -6 3 10 8 15 17 11 20 -3 4 -4 7 0 7 3 0 8 -4 12 -9z m25
-11 c-6 -11 -13 -20 -16 -20 -2 0 0 9 6 20 6 11 13 20 16 20 2 0 0 -9 -6 -20z
m-67 -5 c-3 -9 -8 -14 -10 -11 -3 3 -2 9 2 15 9 16 15 13 8 -4z m162 5 c-3 -5
-12 -10 -18 -10 -7 0 -6 4 3 10 19 12 23 12 15 0z m-235 -10 c0 -5 -4 -10 -10
-10 -5 0 -10 5 -10 10 0 6 5 10 10 10 6 0 10 -4 10 -10z m200 6 c0 -3 -4 -8
-10 -11 -5 -3 -10 -1 -10 4 0 6 5 11 10 11 6 0 10 -2 10 -4z m146 -8 c5 -7 3
-8 -6 -3 -9 5 -10 2 -6 -13 4 -11 2 -23 -3 -27 -7 -4 -8 1 -4 11 4 11 3 15 -5
10 -6 -3 -14 -1 -18 5 -4 7 -3 9 3 6 6 -4 13 0 17 8 7 18 12 19 22 3z m36 5
c-6 -2 -9 -10 -6 -15 4 -7 2 -8 -5 -4 -13 9 -5 26 12 25 9 0 8 -2 -1 -6z
m-442 -18 c0 -8 -4 -15 -10 -15 -5 0 -7 7 -4 15 4 8 8 15 10 15 2 0 4 -7 4
-15z m114 0 c3 -8 1 -15 -4 -15 -6 0 -10 7 -10 15 0 8 2 15 4 15 2 0 6 -7 10
-15z m126 -20 c0 -5 -5 -3 -10 5 -5 8 -10 20 -10 25 0 6 5 3 10 -5 5 -8 10
-19 10 -25z m94 19 c3 -8 2 -12 -4 -9 -6 3 -10 10 -10 16 0 14 7 11 14 -7z
m141 6 c-3 -5 -12 -10 -18 -10 -7 0 -6 4 3 10 19 12 23 12 15 0z m-595 -10 c0
-5 -4 -10 -10 -10 -5 0 -10 5 -10 10 0 6 5 10 10 10 6 0 10 -4 10 -10z m54 -5
c16 -11 22 -22 19 -35 -4 -15 -1 -18 15 -13 27 7 36 -11 14 -28 -16 -13 -16
-12 -2 4 13 17 12 19 -10 15 -19 -2 -25 1 -25 17 0 11 -11 28 -25 37 -31 22
-18 24 14 3z m31 5 c3 -6 -1 -7 -9 -4 -18 7 -21 14 -7 14 6 0 13 -4 16 -10z
m211 -2 c4 -6 3 -8 -4 -4 -5 3 -12 1 -14 -6 -2 -6 -12 -12 -21 -14 -9 -1 -15
2 -11 7 3 5 9 7 14 4 4 -3 10 2 14 10 7 18 12 19 22 3z m104 8 c0 -3 -4 -8
-10 -11 -5 -3 -10 -1 -10 4 0 6 5 11 10 11 6 0 10 -2 10 -4z m35 -15 c3 -5 0
-13 -6 -17 -8 -4 -9 -3 -5 4 4 7 2 12 -3 12 -6 0 -11 -5 -11 -12 0 -6 -3 -9
-6 -5 -7 7 4 27 16 27 5 0 11 -4 15 -9z m-445 -17 c0 -2 -7 -4 -15 -4 -8 0
-15 4 -15 10 0 5 7 7 15 4 8 -4 15 -8 15 -10z m45 7 c3 -5 0 -13 -6 -17 -7 -4
-9 -3 -5 4 3 5 0 13 -6 15 -9 4 -10 6 -1 6 6 1 14 -3 18 -8z m105 -1 c0 -5 -8
-10 -17 -10 -15 0 -16 2 -3 10 19 12 20 12 20 0z m90 -6 c0 -2 -7 -4 -15 -4
-8 0 -15 4 -15 10 0 5 7 7 15 4 8 -4 15 -8 15 -10z m110 6 c0 -5 -4 -10 -10
-10 -5 0 -10 5 -10 10 0 6 5 10 10 10 6 0 10 -4 10 -10z m137 3 c-4 -3 1 -12
11 -20 15 -13 15 -13 -6 -3 -19 9 -23 30 -5 30 4 0 3 -3 0 -7z m73 -13 c-12
-23 -16 -24 -26 -8 -4 6 -3 8 3 5 6 -4 13 0 17 8 3 8 8 15 11 15 3 0 1 -9 -5
-20z m-369 0 c9 13 10 13 6 0 -2 -8 -10 -15 -17 -15 -7 0 -15 7 -17 15 -4 13
-3 13 6 0 10 -13 12 -13 22 0z m123 -36 c-7 -6 -12 -13 -9 -16 3 -2 -2 -5 -12
-5 -14 0 -13 3 3 16 11 9 18 25 17 36 l-3 20 9 -20 c6 -14 5 -23 -5 -31z m90
31 c3 -8 1 -15 -4 -15 -6 0 -10 7 -10 15 0 8 2 15 4 15 2 0 6 -7 10 -15z m-29
-5 c-3 -5 -12 -10 -18 -10 -7 0 -6 4 3 10 19 12 23 12 15 0z m108 -13 c4 3 7
4 7 0 0 -18 -21 -14 -30 5 -10 21 -10 21 3 6 8 -10 17 -15 20 -11z m-335 -12
c-3 -3 -9 2 -12 12 -6 14 -5 15 5 6 7 -7 10 -15 7 -18z m75 10 c-3 -9 -8 -14
-10 -11 -3 3 -2 9 2 15 9 16 15 13 8 -4z m59 -7 c-7 -7 -16 -6 -29 1 -16 11
-15 11 6 5 17 -4 21 -3 16 6 -6 9 -4 11 4 5 9 -5 9 -11 3 -17z m160 8 c7 4 8
2 4 -5 -9 -13 -26 -5 -25 12 0 9 2 8 6 -1 2 -6 10 -9 15 -6z m-437 -6 c3 -6
-1 -7 -9 -4 -18 7 -21 14 -7 14 6 0 13 -4 16 -10z m45 -16 c0 -17 -16 -19 -26
-2 -5 7 -3 8 6 3 10 -6 12 -4 7 9 -4 10 -3 15 3 11 6 -3 10 -13 10 -21z m460
6 c-14 -11 -29 -20 -35 -20 -5 0 4 9 20 20 38 25 48 25 15 0z m44 1 c-10 -10
-21 -16 -24 -14 -3 3 4 11 14 19 28 20 33 17 10 -5z m51 9 c3 -6 -1 -7 -9 -4
-18 7 -21 14 -7 14 6 0 13 -4 16 -10z m-438 -22 c-2 -12 -9 -24 -15 -26 -7 -2
-9 -9 -6 -14 5 -7 2 -8 -6 -3 -10 6 -10 10 2 19 15 11 18 17 18 36 0 6 2 10 5
10 3 0 3 -10 2 -22z m35 -20 c-6 -6 -12 -6 -17 3 -6 8 -4 10 5 4 9 -5 10 -1 6
16 -6 21 -6 22 5 6 7 -13 8 -22 1 -29z m157 39 c-2 -1 -13 -9 -24 -17 -19 -14
-19 -14 -6 3 7 9 18 17 24 17 6 0 8 -1 6 -3z m25 -12 c-10 -8 -23 -15 -28 -15
-6 0 -1 7 10 15 10 8 23 15 28 15 6 0 1 -7 -10 -15z m-134 1 c0 -2 -7 -7 -16
-10 -8 -3 -12 -2 -9 4 6 10 25 14 25 6z m165 -6 c-3 -5 -12 -10 -18 -10 -7 0
-6 4 3 10 19 12 23 12 15 0z m40 0 c-3 -5 -12 -10 -18 -10 -7 0 -6 4 3 10 19
12 23 12 15 0z m135 6 c0 -3 -4 -8 -10 -11 -5 -3 -10 -1 -10 4 0 6 5 11 10 11
6 0 10 -2 10 -4z m-327 -21 c-3 -9 -8 -14 -10 -11 -3 3 -2 9 2 15 9 16 15 13
8 -4z m-223 -11 c0 -2 -7 -4 -15 -4 -8 0 -15 4 -15 10 0 5 7 7 15 4 8 -4 15
-8 15 -10z m30 6 c0 -5 -5 -10 -11 -10 -5 0 -7 5 -4 10 3 6 8 10 11 10 2 0 4
-4 4 -10z m50 -10 c-6 -11 -13 -20 -16 -20 -2 0 0 9 6 20 6 11 13 20 16 20 2
0 0 -9 -6 -20z m-116 -5 c3 -8 1 -15 -4 -15 -6 0 -10 7 -10 15 0 8 2 15 4 15
2 0 6 -7 10 -15z m240 0 c3 -8 1 -15 -4 -15 -6 0 -10 7 -10 15 0 8 2 15 4 15
2 0 6 -7 10 -15z m61 -27 c-3 -15 0 -18 18 -14 12 3 16 3 9 0 -6 -3 -10 -10
-7 -14 3 -5 0 -12 -6 -16 -7 -4 -9 -3 -5 4 3 5 1 12 -6 14 -6 2 -13 19 -14 38
-2 22 0 29 6 20 4 -7 7 -22 5 -32z m50 13 c-6 -5 -25 10 -25 20 0 5 6 4 14 -3
8 -7 12 -15 11 -17z m75 19 c0 -5 -4 -10 -10 -10 -5 0 -10 5 -10 10 0 6 5 10
10 10 6 0 10 -4 10 -10z m75 -9 c-3 -6 -11 -11 -16 -11 -5 0 -4 6 3 14 14 16
24 13 13 -3z m41 -3 c-2 -13 1 -34 6 -48 7 -18 6 -22 -2 -14 -14 14 -18 84 -5
84 3 0 3 -10 1 -22z m-571 2 c-3 -5 -12 -10 -18 -10 -7 0 -6 4 3 10 19 12 23
12 15 0z m112 -12 c-3 -8 -6 -5 -6 6 -1 11 2 17 5 13 3 -3 4 -12 1 -19z m110
-13 c-9 -7 -13 -16 -9 -20 4 -5 1 -5 -6 -1 -7 4 -9 12 -6 18 5 8 1 9 -10 5
-10 -4 -15 -3 -11 4 4 5 16 7 27 3 15 -4 18 -3 13 6 -6 9 -4 11 5 5 10 -6 10
-11 -3 -20z m-157 11 c0 -2 -7 -7 -16 -10 -8 -3 -12 -2 -9 4 6 10 25 14 25 6z
m30 -6 c0 -5 -2 -10 -4 -10 -3 0 -8 5 -11 10 -3 6 -1 10 4 10 6 0 11 -4 11
-10z m50 -10 c-6 -11 -13 -20 -16 -20 -2 0 0 9 6 20 6 11 13 20 16 20 2 0 0
-9 -6 -20z m270 10 c0 -5 -4 -10 -10 -10 -5 0 -10 5 -10 10 0 6 5 10 10 10 6
0 10 -4 10 -10z m80 0 c0 -5 -4 -10 -10 -10 -5 0 -10 5 -10 10 0 6 5 10 10 10
6 0 10 -4 10 -10z m-480 -10 c-13 -9 -13 -11 0 -20 9 -6 10 -10 3 -10 -15 0
-26 17 -18 30 3 6 12 10 18 10 7 0 6 -4 -3 -10z m242 3 c-6 -2 -9 -10 -6 -15
4 -7 2 -8 -5 -4 -13 9 -5 26 12 25 9 0 8 -2 -1 -6z m-182 -13 c0 -5 -4 -10
-10 -10 -5 0 -10 5 -10 10 0 6 5 10 10 10 6 0 10 -4 10 -10z m214 -22 c-4 -15
-3 -18 6 -13 9 5 11 4 6 -4 -12 -18 -28 -2 -20 21 4 15 3 18 -6 13 -9 -5 -11
-4 -6 4 12 18 28 2 20 -21z m169 25 c-7 -2 -19 -2 -25 0 -7 3 -2 5 12 5 14 0
19 -2 13 -5z m78 -6 c-6 -8 -8 -17 -4 -20 3 -4 1 -7 -5 -7 -14 0 -14 2 -6 24
3 9 11 16 16 16 7 0 6 -5 -1 -13z m-441 -17 c0 -5 -8 -10 -17 -10 -15 0 -16 2
-3 10 19 12 20 12 20 0z m55 0 c-8 -13 1 -13 28 1 20 9 20 9 5 -4 -10 -8 -14
-18 -10 -22 4 -4 -3 -2 -16 4 -19 10 -23 31 -6 31 3 0 2 -4 -1 -10z m95 -12
c10 -21 10 -21 -3 -6 -8 10 -18 14 -22 10 -5 -4 -5 -1 -1 6 10 17 14 15 26
-10z m121 -1 c-10 -9 -11 -8 -5 6 3 10 9 15 12 12 3 -3 0 -11 -7 -18z m-254
-9 c-3 -8 -6 -5 -6 6 -1 11 2 17 5 13 3 -3 4 -12 1 -19z m-112 2 c3 -6 -1 -7
-9 -4 -18 7 -21 14 -7 14 6 0 13 -4 16 -10z m29 -5 c-4 -8 -8 -15 -10 -15 -2
0 -4 7 -4 15 0 8 4 15 10 15 5 0 7 -7 4 -15z m206 -10 c0 -2 -6 -7 -12 -11 -7
-4 -10 -4 -6 1 4 4 0 14 -10 22 -15 13 -15 13 6 3 12 -6 22 -13 22 -15z m120
0 c0 -2 -6 -7 -12 -11 -7 -4 -10 -4 -6 1 4 4 0 14 -10 22 -15 13 -15 13 6 3
12 -6 22 -13 22 -15z m50 21 c0 -3 -4 -8 -10 -11 -5 -3 -10 -1 -10 4 0 6 5 11
10 11 6 0 10 -2 10 -4z m30 -6 c0 -5 -4 -10 -10 -10 -5 0 -10 5 -10 10 0 6 5
10 10 10 6 0 10 -4 10 -10z m40 0 c0 -5 -4 -10 -10 -10 -5 0 -10 5 -10 10 0 6
5 10 10 10 6 0 10 -4 10 -10z m30 0 c0 -5 -2 -10 -4 -10 -3 0 -8 5 -11 10 -3
6 -1 10 4 10 6 0 11 -4 11 -10z m65 0 c3 -6 -1 -7 -9 -4 -18 7 -21 14 -7 14 6
0 13 -4 16 -10z m-477 -25 c-3 -3 -9 2 -12 12 -6 14 -5 15 5 6 7 -7 10 -15 7
-18z m439 10 c0 -8 -4 -15 -9 -15 -10 0 -11 14 -1 23 9 10 10 9 10 -8z m-538
-18 c0 -9 -2 -9 -5 0 -3 7 -13 9 -22 6 -14 -4 -14 -3 -2 5 16 12 30 7 29 -11z
m71 19 c0 -2 -7 -6 -15 -10 -8 -3 -15 -1 -15 4 0 6 7 10 15 10 8 0 15 -2 15
-4z m87 -3 c-4 -3 1 -12 11 -20 15 -13 15 -13 -6 -3 -19 9 -23 30 -5 30 4 0 3
-3 0 -7z m54 -15 c6 -13 8 -20 4 -16 -4 4 -14 0 -22 -10 -13 -15 -13 -15 -4 5
14 28 14 36 -1 27 -7 -4 -8 -3 -4 4 10 17 14 15 27 -10z m119 0 c10 -21 10
-21 -3 -6 -8 10 -18 14 -22 10 -5 -4 -5 -1 -1 6 10 17 14 15 26 -10z m47 3 c0
-11 -5 -18 -9 -15 -4 3 -5 11 -1 19 7 21 12 19 10 -4z m-120 -13 c2 -17 0 -19
-7 -8 -5 8 -6 18 -4 22 8 12 10 10 11 -14z m158 12 c-3 -5 -12 -10 -18 -10 -7
0 -6 4 3 10 19 12 23 12 15 0z m49 -6 c9 -24 2 -26 -12 -4 -7 11 -8 20 -3 20
5 0 12 -7 15 -16z m52 -12 c-4 -3 -14 2 -24 12 -16 18 -16 18 6 6 13 -6 21
-14 18 -18z m-436 14 c0 -2 -7 -7 -16 -10 -8 -3 -12 -2 -9 4 6 10 25 14 25 6z
m225 -9 c15 -12 16 -15 4 -22 -8 -5 -10 -4 -6 0 4 5 -3 15 -15 22 -13 7 -18
12 -12 13 5 0 18 -6 29 -13z m-272 -18 c-8 -8 -13 -7 -18 2 -5 8 -4 10 3 5 7
-4 12 -2 12 5 0 7 3 9 7 6 4 -4 2 -12 -4 -18z m400 0 c-8 -8 -13 -7 -18 2 -5
8 -4 10 3 5 7 -4 12 -2 12 5 0 7 3 9 7 6 4 -4 2 -12 -4 -18z m-313 6 c0 -2
-10 -9 -22 -15 -22 -11 -22 -10 -4 4 21 17 26 19 26 11z m230 -15 c-12 -23
-16 -24 -26 -8 -4 6 -3 8 3 5 6 -4 13 0 17 8 3 8 8 15 11 15 3 0 1 -9 -5 -20z
m38 6 c-10 -7 -14 -17 -10 -21 4 -5 1 -5 -7 0 -12 7 -11 10 4 22 24 17 36 17
13 -1z m106 -2 c3 -8 2 -12 -4 -9 -6 3 -10 10 -10 16 0 14 7 11 14 -7z m46 6
c0 -5 -8 -10 -17 -10 -15 0 -16 2 -3 10 19 12 20 12 20 0z m-332 -20 c-7 -10
-14 -17 -17 -15 -4 4 18 35 25 35 2 0 -1 -9 -8 -20z m-34 -6 c3 -8 2 -12 -4
-9 -6 3 -10 10 -10 16 0 14 7 11 14 -7z m120 5 c3 -3 -4 -5 -14 -6 -11 -1 -20
2 -20 7 0 8 25 8 34 -1z m174 -10 c3 -11 2 -11 -7 1 -10 13 -13 13 -21 -2 -6
-10 -18 -14 -30 -11 -16 4 -19 2 -14 -11 3 -9 2 -16 -4 -16 -6 0 -9 8 -8 18 2
9 11 17 22 17 10 0 23 6 27 13 10 16 29 11 35 -9z m-108 -4 c0 -2 -10 -9 -22
-15 -22 -11 -22 -10 -4 4 21 17 26 19 26 11z m150 1 c0 -2 -7 -6 -15 -10 -8
-3 -15 -1 -15 4 0 6 7 10 15 10 8 0 15 -2 15 -4z m-42 -37 c3 -11 2 -11 -7 1
-10 13 -12 13 -21 0 -5 -8 -10 -10 -10 -4 0 27 31 30 38 3z m52 11 c0 -5 -4
-10 -10 -10 -5 0 -10 5 -10 10 0 6 5 10 10 10 6 0 10 -4 10 -10z m-166 -19 c3
-4 -6 -6 -19 -3 -14 2 -25 6 -25 8 0 8 39 4 44 -5z m57 -14 c-10 -9 -11 -8 -5
6 3 10 9 15 12 12 3 -3 0 -11 -7 -18z m84 13 c3 -5 1 -10 -4 -10 -6 0 -11 5
-11 10 0 6 2 10 4 10 3 0 8 -4 11 -10z m-10 -40 c5 1 11 -4 13 -12 3 -11 2
-11 -6 0 -5 8 -13 13 -18 12 -5 0 -10 7 -11 17 -3 17 -2 17 5 0 4 -10 12 -18
17 -17z"/>
<path d="M3582 6901 c-10 -6 -10 -10 3 -21 12 -10 18 -10 30 0 13 11 13 15 3
21 -7 5 -15 9 -18 9 -3 0 -11 -4 -18 -9z"/>
<path d="M5270 6799 c-8 -5 -11 -9 -7 -9 5 0 2 -7 -7 -15 -8 -9 -12 -23 -9
-32 4 -10 2 -14 -4 -10 -12 8 -36 -40 -27 -55 4 -6 3 -8 -3 -5 -12 8 -52 -62
-48 -86 2 -9 0 -15 -5 -12 -5 3 -22 -22 -38 -55 -17 -33 -27 -58 -23 -56 4 3
8 -1 8 -8 0 -9 -7 -12 -15 -8 -11 4 -14 1 -9 -12 4 -10 3 -15 -3 -11 -6 3 -10
-1 -10 -10 0 -9 5 -13 10 -10 6 3 10 1 10 -5 0 -7 7 -9 16 -6 8 3 12 2 9 -4
-5 -9 34 -32 58 -34 4 -1 11 -6 15 -12 11 -16 51 -36 62 -29 5 3 12 0 16 -6 5
-8 3 -9 -6 -4 -9 5 -11 4 -6 -3 4 -7 14 -12 22 -12 8 0 14 -4 14 -10 0 -5 5
-10 11 -10 5 0 7 5 3 12 -4 7 -3 8 5 4 6 -4 9 -11 6 -16 -7 -11 50 -42 60 -32
3 4 5 0 3 -8 -2 -9 6 -16 20 -18 12 -2 20 -7 17 -11 -2 -4 8 -14 23 -22 14 -8
34 -22 44 -31 22 -22 42 -23 58 -3 7 8 10 15 7 15 -3 0 8 15 25 34 16 19 28
37 27 40 -2 3 6 13 18 21 13 9 20 23 18 35 -2 11 1 23 7 26 7 4 8 2 4 -4 -4
-7 -3 -12 2 -12 12 0 45 50 45 67 0 6 5 11 10 10 5 -1 12 4 15 12 3 9 0 11 -9
6 -8 -5 -11 -4 -6 1 5 5 14 9 20 9 7 1 11 7 9 14 -1 7 2 10 8 6 5 -3 15 5 22
19 6 14 15 26 20 26 15 0 8 21 -9 27 -10 4 -23 12 -29 17 -22 21 -67 51 -75
51 -4 0 -15 9 -23 20 -9 11 -16 16 -16 11 0 -6 -7 -1 -15 10 -13 18 -14 18 -9
-8 2 -16 0 -28 -5 -28 -5 0 -8 8 -6 18 3 23 -13 54 -26 47 -5 -4 -9 -1 -9 5 0
6 -5 8 -10 5 -6 -3 -13 1 -16 10 -4 9 -13 14 -21 11 -8 -3 -11 -1 -8 4 3 6 -2
13 -12 17 -10 3 -26 13 -35 21 -10 8 -18 11 -18 6 0 -5 -4 -4 -8 2 -13 20
-106 69 -100 53 4 -10 0 -15 -13 -15 -14 0 -15 3 -7 13 16 20 1 28 -19 12 -16
-13 -17 -12 -5 3 15 19 3 31 -18 17z m15 -47 c-3 -3 -11 0 -18 7 -9 10 -8 11
6 5 10 -3 15 -9 12 -12z m129 -48 c7 -19 2 -18 -19 6 -16 17 -16 20 -3 15 9
-4 19 -13 22 -21z m-169 -4 c-1 -11 -4 -22 -7 -25 -4 -5 -4 34 1 43 4 8 7 -1
6 -18z m63 -5 c-3 -3 -9 2 -12 12 -6 14 -5 15 5 6 7 -7 10 -15 7 -18z m73 -2
c13 -16 12 -17 -3 -4 -10 7 -18 15 -18 17 0 8 8 3 21 -13z m-17 -11 c3 -5 -1
-9 -9 -9 -8 0 -12 4 -9 9 3 4 7 8 9 8 2 0 6 -4 9 -8z m-64 -17 c-14 -17 -30
-20 -30 -4 0 5 4 8 9 4 5 -3 12 -1 16 5 3 5 9 10 12 10 3 0 0 -7 -7 -15z m118
4 c-2 -6 -8 -11 -13 -11 -6 0 -17 -5 -25 -11 -13 -10 -13 -10 -1 5 7 10 17 15
22 12 5 -3 9 0 9 5 0 6 3 11 6 11 3 0 4 -5 2 -11z m42 7 c0 -2 -7 -7 -16 -10
-8 -3 -12 -2 -9 4 6 10 25 14 25 6z m-249 -39 c-6 -8 -7 -18 -3 -22 4 -5 1 -5
-6 -1 -10 6 -10 11 -1 22 6 8 14 14 16 14 3 0 0 -6 -6 -13z m27 -17 c-7 -11
-14 -17 -17 -15 -2 3 1 11 7 18 7 8 8 18 4 22 -4 5 -1 5 5 1 10 -5 10 -11 1
-26z m212 26 c0 -2 -7 -7 -16 -10 -8 -3 -12 -2 -9 4 6 10 25 14 25 6z m37 -13
c0 -9 -4 -10 -14 -2 -7 6 -13 12 -13 14 0 1 6 2 13 2 8 0 14 -6 14 -14z m-162
-3 c4 -6 11 -7 17 -4 7 4 8 2 4 -5 -6 -9 -12 -9 -24 1 -10 7 -19 14 -21 15 -2
2 1 3 7 3 6 0 14 -5 17 -10z m243 -24 c16 -20 16 -20 -2 -6 -24 19 -47 21 -66
7 -13 -10 -13 -10 -2 5 17 22 48 19 70 -6z m-373 -43 c-18 -17 -18 -17 -6 0
11 14 11 20 0 35 -12 16 -12 16 6 0 19 -18 19 -18 0 -35z m111 17 c0 -12 -4
-16 -9 -11 -5 5 -6 14 -3 20 10 15 12 14 12 -9z m-79 -12 c-3 -8 -6 -5 -6 6
-1 11 2 17 5 13 3 -3 4 -12 1 -19z m140 7 c0 -8 -4 -12 -9 -9 -4 3 -8 9 -8 15
0 5 4 9 8 9 5 0 9 -7 9 -15z m128 6 c-9 -8 -36 -10 -30 -2 2 4 11 8 20 8 8 0
13 -3 10 -6z m-45 -5 c0 -2 -8 -10 -17 -17 -16 -13 -17 -12 -4 4 13 16 21 21
21 13z m-45 -24 c-3 -3 -11 0 -18 7 -9 10 -8 11 6 5 10 -3 15 -9 12 -12z m-58
-5 c0 -8 -6 -14 -14 -14 -9 0 -10 4 -2 14 6 7 12 13 14 13 1 0 2 -6 2 -13z
m118 3 c-3 -5 -12 -10 -18 -10 -7 0 -6 4 3 10 19 12 23 12 15 0z m24 -23 c8
-10 7 -14 -2 -14 -8 0 -14 6 -14 14 0 7 1 13 2 13 2 0 8 -6 14 -13z m204 -1
c6 -15 -17 -16 -30 -1 -4 4 -2 5 5 1 6 -4 12 -2 12 3 0 15 7 14 13 -3z m-550
-11 c-3 -9 -8 -14 -10 -11 -3 3 -2 9 2 15 9 16 15 13 8 -4z m37 11 c0 -2 -8
-10 -17 -17 -16 -13 -17 -12 -4 4 13 16 21 21 21 13z m35 -6 c3 -6 -1 -7 -9
-4 -18 7 -21 14 -7 14 6 0 13 -4 16 -10z m103 -15 c-3 -3 -9 2 -12 12 -6 14
-5 15 5 6 7 -7 10 -15 7 -18z m105 0 c-3 -9 -8 -14 -10 -11 -3 3 -2 9 2 15 9
16 15 13 8 -4z m160 0 c-3 -9 -8 -14 -10 -11 -3 3 -2 9 2 15 9 16 15 13 8 -4z
m-282 -12 c13 -17 13 -17 -6 -3 -11 8 -22 16 -24 17 -2 2 0 3 6 3 6 0 17 -8
24 -17z m320 -6 c-10 -9 -11 -8 -5 6 3 10 9 15 12 12 3 -3 0 -11 -7 -18z
m-466 -44 c-18 -17 -18 -17 -6 0 11 14 11 20 0 35 -12 16 -12 16 6 0 19 -18
19 -18 0 -35z m93 30 c-12 -15 -22 -18 -14 -4 4 5 0 11 -6 14 -7 3 -3 4 9 4
17 -1 19 -4 11 -14z m36 8 c3 -5 -2 -15 -12 -22 -15 -12 -16 -12 -5 2 7 9 10
19 6 22 -3 4 -4 7 0 7 3 0 8 -4 11 -9z m86 3 c0 -8 -19 -13 -24 -6 -3 5 1 9 9
9 8 0 15 -2 15 -3z m118 -11 c-12 -15 -22 -18 -14 -4 4 5 0 11 -6 14 -7 3 -3
4 9 4 17 -1 19 -4 11 -14z m47 7 c3 -6 -1 -7 -9 -4 -18 7 -21 14 -7 14 6 0 13
-4 16 -10z m192 -7 c0 -9 -4 -10 -14 -2 -7 6 -13 12 -13 14 0 1 6 2 13 2 8 0
14 -6 14 -14z m-337 3 c0 -2 -8 -10 -17 -17 -16 -13 -17 -12 -4 4 13 16 21 21
21 13z m52 -11 c3 3 11 -3 19 -12 12 -16 12 -17 -2 -6 -9 7 -18 11 -21 8 -3
-3 -11 3 -19 12 -12 16 -12 17 2 6 9 -7 18 -11 21 -8z m-221 -12 c13 -16 12
-17 -3 -4 -10 7 -18 15 -18 17 0 8 8 3 21 -13z m80 -6 c-10 -9 -11 -8 -5 6 3
10 9 15 12 12 3 -3 0 -11 -7 -18z m107 0 c8 -10 6 -13 -7 -13 -11 0 -17 6 -14
13 3 7 6 13 8 13 1 0 7 -6 13 -13z m352 9 c0 -2 -7 -7 -16 -10 -8 -3 -12 -2
-9 4 6 10 25 14 25 6z m-538 -31 c2 3 5 -2 5 -10 0 -10 -4 -12 -12 -5 -7 5
-14 8 -17 5 -2 -3 -5 2 -5 10 0 10 4 12 12 5 7 -5 14 -8 17 -5z m138 -5 c12
-7 10 -9 -8 -7 -12 0 -22 5 -22 9 0 11 12 10 30 -2z m101 -13 c-10 -9 -11 -8
-5 6 3 10 9 15 12 12 3 -3 0 -11 -7 -18z m160 6 c13 -17 13 -17 -6 -3 -11 8
-22 16 -24 17 -2 2 0 3 6 3 6 0 17 -8 24 -17z m-95 -18 c0 -14 -4 -25 -8 -25
-6 0 -5 25 1 48 3 10 7 -2 7 -23z m-236 1 c-7 -7 -13 -7 -20 0 -6 6 -3 10 10
10 13 0 16 -4 10 -10z m28 -16 c-7 -11 -14 -17 -17 -15 -2 3 1 11 7 18 7 8 8
18 4 22 -4 5 -1 5 5 1 10 -5 10 -11 1 -26z m87 21 c-3 -5 -1 -12 5 -16 5 -3
10 -11 10 -18 0 -6 -6 -2 -14 8 -13 18 -13 35 0 35 3 0 3 -4 -1 -9z m-199 -24
c1 -9 -2 -15 -7 -11 -5 3 -7 9 -4 14 3 4 0 11 -5 13 -6 3 -5 4 1 3 7 -1 13
-10 15 -19z m461 10 c0 -8 -6 -14 -14 -14 -9 0 -10 4 -2 14 6 7 12 13 14 13 1
0 2 -6 2 -13z m-177 -22 c14 -19 14 -19 -2 -6 -10 7 -18 18 -18 24 0 6 1 8 3
6 1 -2 9 -13 17 -24z m-120 -9 c-7 -7 -13 -7 -20 0 -6 6 -3 10 10 10 13 0 16
-4 10 -10z m81 1 c-6 -8 -9 -16 -6 -19 3 -3 -3 -11 -12 -19 -16 -13 -17 -12
-4 4 7 9 10 17 6 17 -4 0 -2 7 5 15 7 8 15 15 17 15 3 0 0 -6 -6 -13z m154 5
c-3 -3 3 -15 12 -26 10 -12 11 -16 4 -9 -10 9 -20 9 -35 2 -19 -9 -19 -9 -4 4
12 9 14 17 7 24 -6 6 -5 10 6 10 8 0 13 -3 10 -5z m44 -26 c-3 -3 -11 5 -18
17 -13 21 -12 21 5 5 10 -10 16 -20 13 -22z m-362 7 c-4 -3 -1 -13 6 -22 11
-14 10 -14 -5 -2 -21 15 -23 31 -6 31 6 0 8 -3 5 -7z m43 1 c0 -8 -19 -13 -24
-6 -3 5 1 9 9 9 8 0 15 -2 15 -3z m90 0 c0 -8 -19 -13 -24 -6 -3 5 1 9 9 9 8
0 15 -2 15 -3z m-85 -24 c-3 -5 -12 -10 -18 -10 -7 0 -6 4 3 10 19 12 23 12
15 0z m70 -8 c-3 -3 -11 0 -18 7 -9 10 -8 11 6 5 10 -3 15 -9 12 -12z m55 -7
c-6 -8 -8 -20 -4 -27 5 -10 4 -10 -6 -1 -11 10 -11 15 0 28 7 8 15 15 17 15 3
0 0 -7 -7 -15z m29 -18 c8 -10 7 -14 -2 -14 -8 0 -14 6 -14 14 0 7 1 13 2 13
2 0 8 -6 14 -13z m-62 -22 c0 -8 -4 -12 -9 -9 -5 3 -6 10 -3 15 9 13 12 11 12
-6z m121 -1 c8 -2 17 -5 20 -8 3 -4 -4 -5 -16 -3 -12 2 -28 9 -35 17 -10 10
-9 11 3 4 8 -5 21 -9 28 -10z m-174 -2 c3 -5 -1 -9 -9 -9 -8 0 -15 4 -15 9 0
4 4 8 9 8 6 0 12 -4 15 -8z m31 -11 c3 -5 2 -12 -3 -15 -5 -3 -9 1 -9 9 0 17
3 19 12 6z m87 -8 c-6 -3 -9 -10 -5 -16 4 -7 -1 -6 -10 2 -21 17 -21 17 6 18
12 0 16 -1 9 -4z m91 -18 c-3 -9 -8 -14 -10 -11 -3 3 -2 9 2 15 9 16 15 13 8
-4z m-128 -5 c3 -6 -1 -7 -9 -4 -18 7 -21 14 -7 14 6 0 13 -4 16 -10z m65 6
c0 -2 -8 -10 -17 -17 -16 -13 -17 -12 -4 4 13 16 21 21 21 13z m5 -46 c3 -5 1
-10 -4 -10 -6 0 -11 5 -11 10 0 6 2 10 4 10 3 0 8 -4 11 -10z"/>
<path d="M3500 6383 c-315 -14 -642 -83 -922 -194 -234 -92 -517 -256 -718
-415 -131 -104 -384 -364 -486 -499 -347 -463 -532 -965 -569 -1547 l-7 -108
-337 0 c-199 0 -351 -4 -373 -10 -63 -18 -78 -48 -78 -155 0 -257 72 -663 170
-965 262 -801 810 -1500 1519 -1939 222 -137 527 -288 558 -276 8 2 12 1 9 -4
-10 -15 261 -107 470 -160 420 -106 865 -131 1344 -76 226 26 699 142 683 168
-3 6 -1 7 5 3 16 -10 93 15 85 27 -3 6 -1 7 5 3 12 -7 151 44 242 88 140 68
260 132 260 138 0 5 3 7 8 6 14 -5 111 55 105 65 -3 6 -1 7 5 3 15 -9 55 18
44 29 -4 5 -2 5 5 1 14 -8 195 113 187 125 -3 5 -2 8 3 7 23 -6 148 90 334
259 84 76 115 110 106 116 -8 6 -7 7 5 4 11 -4 30 11 60 46 23 28 42 55 40 60
-1 5 2 6 7 3 11 -7 33 19 23 28 -4 4 -2 6 4 4 11 -3 149 151 161 180 3 8 19
28 35 45 15 18 26 38 23 45 -3 7 -1 10 4 7 13 -8 74 83 65 97 -4 6 -3 8 3 5
11 -7 80 91 76 105 -2 5 1 8 6 8 14 0 52 70 45 82 -4 6 -3 8 3 5 9 -6 96 144
93 159 -1 4 3 10 8 13 25 15 156 326 146 344 -4 7 -3 8 1 4 11 -9 48 80 40 94
-4 5 -2 9 2 9 13 0 55 138 47 152 -4 6 -3 8 3 5 11 -7 47 119 38 133 -4 6 -1
10 6 10 6 0 9 8 6 20 -3 11 -1 20 5 20 6 0 8 6 5 14 -3 7 -1 18 4 23 6 6 11
33 12 61 1 27 5 48 8 46 7 -4 12 23 38 201 10 72 18 152 17 178 -1 27 2 51 6
53 4 3 8 127 8 275 0 149 -3 268 -7 266 -5 -3 -8 25 -9 61 -1 112 -4 143 -11
139 -5 -3 -8 18 -9 47 0 28 -4 68 -8 90 l-7 38 -42 -6 c-23 -4 -60 -9 -82 -12
-21 -3 -44 -8 -50 -12 -5 -4 -18 -5 -27 -4 -10 2 -18 -1 -18 -7 0 -6 -6 -8
-13 -5 -7 2 -46 -3 -87 -11 -67 -14 -97 -20 -123 -24 -5 0 -5 -6 -1 -13 4 -6
8 -23 9 -37 4 -71 18 -171 24 -171 3 0 4 -25 3 -56 -2 -31 0 -54 5 -51 4 3 7
-47 5 -110 -2 -91 0 -113 10 -107 10 6 11 5 1 -8 -9 -10 -12 -51 -10 -136 1
-66 0 -119 -3 -117 -6 4 -33 -217 -34 -272 0 -18 -4 -33 -8 -33 -4 0 -8 -9 -8
-20 0 -10 -9 -59 -21 -107 -11 -48 -22 -99 -24 -113 -2 -14 -5 -27 -6 -30 -1
-3 -3 -9 -4 -15 -1 -5 -7 -22 -13 -38 -7 -15 -14 -38 -16 -50 -2 -12 -9 -35
-15 -51 -7 -16 -9 -36 -7 -43 3 -8 2 -12 -2 -9 -11 7 -54 -113 -45 -127 3 -6
1 -7 -5 -3 -11 7 -16 -7 -15 -41 1 -7 -3 -10 -8 -7 -5 3 -9 0 -9 -7 0 -6 -31
-77 -69 -156 -39 -79 -70 -146 -70 -150 1 -3 -3 -9 -8 -12 -5 -3 -27 -35 -48
-71 -38 -63 -194 -300 -205 -310 -36 -34 -207 -250 -202 -255 4 -5 2 -5 -4 -2
-13 8 -177 -157 -166 -168 4 -4 2 -5 -4 -2 -9 5 -121 -82 -261 -202 -18 -16
-33 -25 -33 -22 0 3 -6 -1 -13 -10 -7 -9 -14 -16 -17 -15 -10 2 -98 -58 -95
-64 2 -4 -1 -7 -8 -7 -21 0 -177 -100 -169 -108 4 -5 2 -5 -4 -2 -15 9 -116
-47 -107 -58 5 -4 3 -5 -3 -2 -15 8 -157 -57 -147 -67 4 -4 0 -4 -9 -1 -8 3
-22 -1 -31 -9 -8 -8 -17 -13 -19 -10 -5 4 -109 -36 -118 -46 -3 -3 -9 -5 -15
-5 -5 -1 -62 -18 -125 -38 -117 -38 -327 -90 -412 -102 -26 -4 -46 -10 -44
-14 2 -3 -30 -7 -72 -9 -42 -2 -79 -6 -82 -10 -6 -8 -32 -9 -335 -11 -201 -1
-324 6 -483 30 -40 6 -80 8 -88 5 -8 -3 -13 -2 -10 3 3 5 -13 12 -37 15 -74
12 -246 57 -369 96 -65 21 -118 35 -118 31 0 -3 -4 -1 -8 4 -4 6 -50 28 -102
49 -902 367 -1605 1172 -1849 2117 -42 161 -76 343 -87 467 l-7 72 171 0 170
0 7 -67 c98 -968 704 -1825 1588 -2248 580 -277 1241 -346 1872 -195 798 190
1482 735 1853 1476 221 442 313 887 291 1409 -33 749 -389 1477 -964 1973
-405 349 -871 567 -1395 652 -108 17 -435 43 -480 38 -8 -1 -44 -3 -80 -5z
m3625 -2171 c-3 -3 -11 0 -18 7 -9 10 -8 11 6 5 10 -3 15 -9 12 -12z m-195
-66 c0 -3 -4 -8 -10 -11 -5 -3 -10 -1 -10 4 0 6 5 11 10 11 6 0 10 -2 10 -4z
m160 -6 c0 -5 -5 -10 -11 -10 -5 0 -7 5 -4 10 3 6 8 10 11 10 2 0 4 -4 4 -10z
m-245 -240 c3 -5 1 -10 -4 -10 -6 0 -11 5 -11 10 0 6 2 10 4 10 3 0 8 -4 11
-10z m165 0 c0 -5 -2 -10 -4 -10 -3 0 -8 5 -11 10 -3 6 -1 10 4 10 6 0 11 -4
11 -10z m-163 -165 c0 -8 -4 -12 -9 -9 -5 3 -6 10 -3 15 9 13 12 11 12 -6z
m333 9 c0 -8 -19 -13 -24 -6 -3 5 1 9 9 9 8 0 15 -2 15 -3z m-134 -59 c-1 -8
-5 -17 -8 -21 -5 -4 -4 16 1 34 3 9 9 -1 7 -13z m-196 -19 c0 -3 -4 -8 -10
-11 -5 -3 -10 -1 -10 4 0 6 5 11 10 11 6 0 10 -2 10 -4z m90 -2 c0 -8 -19 -13
-24 -6 -3 5 1 9 9 9 8 0 15 -2 15 -3z m-6 -82 c3 -5 -1 -9 -9 -9 -8 0 -12 4
-9 9 3 4 7 8 9 8 2 0 6 -4 9 -8z m151 -1 c3 -5 2 -12 -3 -15 -5 -3 -9 1 -9 9
0 17 3 19 12 6z m85 3 c0 -8 -19 -13 -24 -6 -3 5 1 9 9 9 8 0 15 -2 15 -3z
m-310 -80 c0 -8 -19 -13 -24 -6 -3 5 1 9 9 9 8 0 15 -2 15 -3z m-15 -73 c3 -5
2 -12 -3 -15 -5 -3 -9 1 -9 9 0 17 3 19 12 6z m205 -35 c0 -2 -8 -10 -17 -17
-16 -13 -17 -12 -4 4 13 16 21 21 21 13z m-200 -136 c0 -5 -2 -10 -4 -10 -3 0
-8 5 -11 10 -3 6 -1 10 4 10 6 0 11 -4 11 -10z m235 -69 c3 -5 2 -12 -3 -15
-5 -3 -9 1 -9 9 0 17 3 19 12 6z m-145 -87 c0 -8 -19 -13 -24 -6 -3 5 1 9 9 9
8 0 15 -2 15 -3z m67 -9 c0 -8 -4 -12 -9 -9 -5 3 -6 10 -3 15 9 13 12 11 12
-6z m123 5 c0 -5 -5 -10 -11 -10 -5 0 -7 5 -4 10 3 6 8 10 11 10 2 0 4 -4 4
-10z m-350 -76 c0 -8 -19 -13 -24 -6 -3 5 1 9 9 9 8 0 15 -2 15 -3z m-6 -82
c3 -5 -1 -9 -9 -9 -8 0 -12 4 -9 9 3 4 7 8 9 8 2 0 6 -4 9 -8z m316 -2 c0 -5
-2 -10 -4 -10 -3 0 -8 5 -11 10 -3 6 -1 10 4 10 6 0 11 -4 11 -10z m-163 -85
c0 -8 -4 -12 -9 -9 -5 3 -6 10 -3 15 9 13 12 11 12 -6z m-3 -73 c3 -5 -1 -9
-9 -9 -8 0 -12 4 -9 9 3 4 7 8 9 8 2 0 6 -4 9 -8z m86 -76 c0 -3 -4 -8 -10
-11 -5 -3 -10 -1 -10 4 0 6 5 11 10 11 6 0 10 -2 10 -4z m-150 -440 c0 -2 -8
-10 -17 -17 -16 -13 -17 -12 -4 4 13 16 21 21 21 13z m-766 -1084 c3 -5 -1 -9
-9 -9 -8 0 -12 4 -9 9 3 4 7 8 9 8 2 0 6 -4 9 -8z"/>
<path d="M6129 6173 c-1 -5 -1 -12 0 -16 1 -5 -3 -6 -8 -3 -5 3 -14 -1 -21 -9
-7 -8 -9 -15 -4 -15 5 0 -2 -7 -14 -16 -12 -8 -19 -20 -16 -26 4 -6 3 -8 -3
-5 -10 7 -59 -43 -55 -55 1 -5 -1 -7 -5 -6 -13 4 -63 -45 -56 -55 3 -6 2 -7
-4 -4 -13 8 -86 -70 -78 -83 3 -6 -1 -7 -9 -4 -10 4 -18 -1 -22 -10 -6 -15 4
-27 148 -178 15 -16 37 -42 48 -58 12 -18 27 -27 33 -24 7 4 9 4 5 -1 -10 -11
11 -47 23 -40 5 4 8 1 7 -7 -2 -8 4 -12 15 -10 9 2 17 -2 17 -8 0 -6 -4 -8
-10 -5 -5 3 -10 3 -10 0 0 -9 62 -89 72 -93 5 -2 8 -10 8 -18 0 -8 5 -14 10
-14 6 0 10 -4 10 -10 0 -17 47 -79 55 -72 5 4 5 2 2 -5 -4 -6 0 -18 8 -26 8
-9 15 -18 15 -21 0 -16 78 -135 85 -129 4 5 5 2 1 -5 -4 -6 1 -24 11 -40 19
-26 95 -189 144 -304 16 -39 28 -56 38 -53 11 4 11 3 2 -9 -10 -12 -7 -28 13
-79 14 -35 26 -69 26 -76 0 -6 6 -27 14 -46 14 -33 15 -33 50 -23 19 6 32 16
29 21 -3 6 -1 7 5 3 13 -8 102 15 102 27 0 4 4 6 9 3 5 -3 28 1 52 10 24 8 51
17 59 19 52 11 69 18 64 26 -3 5 2 6 11 3 9 -4 22 1 31 12 9 11 13 13 9 7 -4
-8 0 -13 10 -13 12 0 15 5 10 18 -4 9 -16 46 -27 82 -11 36 -23 70 -26 75 -4
6 -8 18 -9 28 -2 10 -9 28 -15 40 -7 12 -13 24 -13 27 -5 36 -18 60 -33 61
-10 0 -12 3 -4 6 6 2 9 10 5 16 -4 7 -8 17 -9 23 -5 30 -59 132 -67 127 -6 -3
-7 -1 -4 4 10 16 -13 74 -26 66 -6 -3 -7 -1 -3 5 7 12 -97 211 -118 224 -6 4
-8 8 -3 8 4 0 -16 37 -44 83 -78 124 -180 262 -191 259 -5 -1 -7 2 -4 7 3 5
-7 23 -23 40 -16 17 -26 31 -23 31 4 1 -2 9 -14 18 -12 10 -26 28 -33 40 -7
12 -16 20 -22 17 -5 -4 -8 -1 -7 6 2 7 -7 18 -20 24 -12 5 -20 15 -18 22 6 14
-18 35 -29 25 -5 -4 -5 -2 -2 4 8 14 -17 37 -27 26 -4 -4 -6 0 -4 8 2 8 -3 14
-10 12 -8 -1 -11 2 -7 8 3 5 -1 13 -9 16 -9 3 -16 12 -16 18 0 13 -61 76 -73
76 -4 0 -8 -3 -8 -7z m41 -53 c0 -5 -5 -10 -11 -10 -5 0 -7 5 -4 10 3 6 8 10
11 10 2 0 4 -4 4 -10z m-60 -120 c0 -5 -2 -10 -4 -10 -3 0 -8 5 -11 10 -3 6
-1 10 4 10 6 0 11 -4 11 -10z m40 6 c0 -3 -4 -8 -10 -11 -5 -3 -10 -1 -10 4 0
6 5 11 10 11 6 0 10 -2 10 -4z m-139 -23 c13 -16 12 -17 -3 -4 -10 7 -18 15
-18 17 0 8 8 3 21 -13z m239 -3 c0 -5 -5 -10 -11 -10 -5 0 -7 5 -4 10 3 6 8
10 11 10 2 0 4 -4 4 -10z m80 -40 c0 -5 -2 -10 -4 -10 -3 0 -8 5 -11 10 -3 6
-1 10 4 10 6 0 11 -4 11 -10z m-310 -34 c0 -2 -8 -10 -17 -17 -16 -13 -17 -12
-4 4 13 16 21 21 21 13z m70 -8 c0 -4 -4 -8 -9 -8 -6 0 -12 4 -15 8 -3 5 1 9
9 9 8 0 15 -4 15 -9z m80 8 c0 -3 -4 -8 -10 -11 -5 -3 -10 -1 -10 4 0 6 5 11
10 11 6 0 10 -2 10 -4z m200 -6 c0 -5 -5 -10 -11 -10 -5 0 -7 5 -4 10 3 6 8
10 11 10 2 0 4 -4 4 -10z m-100 -20 c0 -5 -5 -10 -11 -10 -5 0 -7 5 -4 10 3 6
8 10 11 10 2 0 4 -4 4 -10z m35 0 c3 -5 1 -10 -4 -10 -6 0 -11 5 -11 10 0 6 2
10 4 10 3 0 8 -4 11 -10z m-209 -22 c3 -4 -1 -5 -10 -4 -8 1 -18 5 -22 8 -3 4
1 5 10 4 8 -1 18 -5 22 -8z m265 -11 c-10 -9 -11 -8 -5 6 3 10 9 15 12 12 3
-3 0 -11 -7 -18z m-350 -24 c13 -16 12 -17 -3 -4 -10 7 -18 15 -18 17 0 8 8 3
21 -13z m79 13 c0 -2 -8 -10 -17 -17 -16 -13 -17 -12 -4 4 13 16 21 21 21 13z
m317 -11 c0 -8 -4 -12 -9 -9 -5 3 -6 10 -3 15 9 13 12 11 12 -6z m-497 -5 c0
-5 -5 -10 -11 -10 -5 0 -7 5 -4 10 3 6 8 10 11 10 2 0 4 -4 4 -10z m531 -7
c13 -16 12 -17 -3 -4 -10 7 -18 15 -18 17 0 8 8 3 21 -13z m-211 -13 c0 -5 -5
-10 -11 -10 -5 0 -7 5 -4 10 3 6 8 10 11 10 2 0 4 -4 4 -10z m-144 -20 c0 -12
-4 -16 -9 -11 -5 5 -6 14 -3 20 10 15 12 14 12 -9z m285 3 c13 -16 12 -17 -3
-4 -10 7 -18 15 -18 17 0 8 8 3 21 -13z m73 -9 c3 -8 2 -12 -4 -9 -6 3 -10 10
-10 16 0 14 7 11 14 -7z m-214 -14 c0 -5 -2 -10 -4 -10 -3 0 -8 5 -11 10 -3 6
-1 10 4 10 6 0 11 -4 11 -10z m-149 -27 c13 -16 12 -17 -3 -4 -10 7 -18 15
-18 17 0 8 8 3 21 -13z m14 -32 c-9 -8 -36 -10 -30 -2 2 4 11 8 20 8 8 0 13
-3 10 -6z m175 -21 c0 -5 -2 -10 -4 -10 -3 0 -8 5 -11 10 -3 6 -1 10 4 10 6 0
11 -4 11 -10z m40 6 c0 -3 -4 -8 -10 -11 -5 -3 -10 -1 -10 4 0 6 5 11 10 11 6
0 10 -2 10 -4z m-260 -20 c0 -2 -7 -7 -16 -10 -8 -3 -12 -2 -9 4 6 10 25 14
25 6z m40 -4 c0 -5 -7 -9 -15 -9 -8 0 -12 4 -9 9 3 4 9 8 15 8 5 0 9 -4 9 -8z
m75 -2 c3 -5 1 -10 -4 -10 -6 0 -11 5 -11 10 0 6 2 10 4 10 3 0 8 -4 11 -10z
m-55 -54 c0 -3 -4 -8 -10 -11 -5 -3 -10 -1 -10 4 0 6 5 11 10 11 6 0 10 -2 10
-4z m320 -6 c0 -5 -2 -10 -4 -10 -3 0 -8 5 -11 10 -3 6 -1 10 4 10 6 0 11 -4
11 -10z m-160 -40 c0 -5 -5 -10 -11 -10 -5 0 -7 5 -4 10 3 6 8 10 11 10 2 0 4
-4 4 -10z m-106 -26 c3 -8 2 -12 -4 -9 -6 3 -10 10 -10 16 0 14 7 11 14 -7z
m216 12 c0 -2 -8 -10 -17 -17 -16 -13 -17 -12 -4 4 13 16 21 21 21 13z m150
-6 c0 -5 -5 -10 -11 -10 -5 0 -7 5 -4 10 3 6 8 10 11 10 2 0 4 -4 4 -10z
m-345 -60 c3 -5 1 -10 -4 -10 -6 0 -11 5 -11 10 0 6 2 10 4 10 3 0 8 -4 11
-10z m183 -25 c-3 -3 -9 2 -12 12 -6 14 -5 15 5 6 7 -7 10 -15 7 -18z m123 8
c13 -16 12 -17 -3 -4 -10 7 -18 15 -18 17 0 8 8 3 21 -13z m39 -2 c0 -6 -4
-12 -8 -15 -5 -3 -9 1 -9 9 0 8 4 15 9 15 4 0 8 -4 8 -9z m140 -15 c0 -3 -4
-8 -10 -11 -5 -3 -10 -1 -10 4 0 6 5 11 10 11 6 0 10 -2 10 -4z m-339 -23 c13
-16 12 -17 -3 -4 -10 7 -18 15 -18 17 0 8 8 3 21 -13z m197 -48 c-3 -3 -9 2
-12 12 -6 14 -5 15 5 6 7 -7 10 -15 7 -18z m-63 -15 c3 -5 1 -10 -4 -10 -6 0
-11 5 -11 10 0 6 2 10 4 10 3 0 8 -4 11 -10z m105 -4 c0 -2 -8 -10 -17 -17
-16 -13 -17 -12 -4 4 13 16 21 21 21 13z m-260 -30 c0 -3 -4 -8 -10 -11 -5 -3
-10 -1 -10 4 0 6 5 11 10 11 6 0 10 -2 10 -4z m160 0 c0 -3 -4 -8 -10 -11 -5
-3 -10 -1 -10 4 0 6 5 11 10 11 6 0 10 -2 10 -4z m235 -6 c3 -5 1 -10 -4 -10
-6 0 -11 5 -11 10 0 6 2 10 4 10 3 0 8 -4 11 -10z m-140 -28 c-3 -3 -11 0 -18
7 -9 10 -8 11 6 5 10 -3 15 -9 12 -12z m5 -34 c0 -4 -4 -8 -9 -8 -6 0 -12 4
-15 8 -3 5 1 9 9 9 8 0 15 -4 15 -9z m180 -18 c0 -5 -5 -10 -11 -10 -5 0 -7 5
-4 10 3 6 8 10 11 10 2 0 4 -4 4 -10z m35 0 c3 -5 1 -10 -4 -10 -6 0 -11 5
-11 10 0 6 2 10 4 10 3 0 8 -4 11 -10z m-211 -18 c2 -4 -4 -8 -14 -8 -10 0
-16 4 -14 8 3 4 9 8 14 8 5 0 11 -4 14 -8z m-83 -39 c13 -16 12 -17 -3 -4 -10
7 -18 15 -18 17 0 8 8 3 21 -13z m79 13 c0 -2 -8 -10 -17 -17 -16 -13 -17 -12
-4 4 13 16 21 21 21 13z m210 -50 c0 -2 -8 -10 -17 -17 -16 -13 -17 -12 -4 4
13 16 21 21 21 13z m-350 -26 c0 -5 -2 -10 -4 -10 -3 0 -8 5 -11 10 -3 6 -1
10 4 10 6 0 11 -4 11 -10z m40 6 c0 -3 -4 -8 -10 -11 -5 -3 -10 -1 -10 4 0 6
5 11 10 11 6 0 10 -2 10 -4z m240 -6 c0 -5 -2 -10 -4 -10 -3 0 -8 5 -11 10 -3
6 -1 10 4 10 6 0 11 -4 11 -10z m-160 -40 c0 -5 -5 -10 -11 -10 -5 0 -7 5 -4
10 3 6 8 10 11 10 2 0 4 -4 4 -10z m300 -4 c0 -2 -8 -10 -17 -17 -16 -13 -17
-12 -4 4 13 16 21 21 21 13z m-245 -16 c3 -5 1 -10 -4 -10 -6 0 -11 5 -11 10
0 6 2 10 4 10 3 0 8 -4 11 -10z m-55 -20 c0 -5 -2 -10 -4 -10 -3 0 -8 5 -11
10 -3 6 -1 10 4 10 6 0 11 -4 11 -10z m355 0 c3 -5 1 -10 -4 -10 -6 0 -11 5
-11 10 0 6 2 10 4 10 3 0 8 -4 11 -10z m-440 -19 c3 -5 2 -12 -3 -15 -5 -3 -9
1 -9 9 0 17 3 19 12 6z m445 -15 c0 -3 -4 -8 -10 -11 -5 -3 -10 -1 -10 4 0 6
5 11 10 11 6 0 10 -2 10 -4z m-264 -26 c0 -12 -4 -16 -9 -11 -5 5 -6 14 -3 20
10 15 12 14 12 -9z m-36 1 c0 -6 -4 -12 -8 -15 -5 -3 -9 1 -9 9 0 8 4 15 9 15
4 0 8 -4 8 -9z m71 -8 c13 -16 12 -17 -3 -4 -10 7 -18 15 -18 17 0 8 8 3 21
-13z m200 -40 c13 -16 12 -17 -3 -4 -10 7 -18 15 -18 17 0 8 8 3 21 -13z
m-376 -13 c3 -5 1 -10 -4 -10 -6 0 -11 5 -11 10 0 6 2 10 4 10 3 0 8 -4 11
-10z m285 6 c0 -3 -4 -8 -10 -11 -5 -3 -10 -1 -10 4 0 6 5 11 10 11 6 0 10 -2
10 -4z m-179 -23 c13 -16 12 -17 -3 -4 -10 7 -18 15 -18 17 0 8 8 3 21 -13z
m79 13 c0 -2 -8 -10 -17 -17 -16 -13 -17 -12 -4 4 13 16 21 21 21 13z m151
-29 c-10 -9 -11 -8 -5 6 3 10 9 15 12 12 3 -3 0 -11 -7 -18z m-311 -1 c0 -3
-4 -8 -10 -11 -5 -3 -10 -1 -10 4 0 6 5 11 10 11 6 0 10 -2 10 -4z m420 -46
c0 -5 -5 -10 -11 -10 -5 0 -7 5 -4 10 3 6 8 10 11 10 2 0 4 -4 4 -10z m35 0
c3 -5 1 -10 -4 -10 -6 0 -11 5 -11 10 0 6 2 10 4 10 3 0 8 -4 11 -10z m-141
-30 c-6 -6 -10 -3 -10 10 0 13 4 16 10 10 7 -7 7 -13 0 -20z m-24 16 c0 -2 -8
-10 -17 -17 -16 -13 -17 -12 -4 4 13 16 21 21 21 13z m-110 -66 c0 -5 -2 -10
-4 -10 -3 0 -8 5 -11 10 -3 6 -1 10 4 10 6 0 11 -4 11 -10z m138 -25 c-3 -3
-9 2 -12 12 -6 14 -5 15 5 6 7 -7 10 -15 7 -18z m-63 -15 c3 -5 1 -10 -4 -10
-6 0 -11 5 -11 10 0 6 2 10 4 10 3 0 8 -4 11 -10z m105 -4 c0 -2 -8 -10 -17
-17 -16 -13 -17 -12 -4 4 13 16 21 21 21 13z m-100 -30 c0 -3 -4 -8 -10 -11
-5 -3 -10 -1 -10 4 0 6 5 11 10 11 6 0 10 -2 10 -4z m200 -6 c0 -5 -5 -10 -11
-10 -5 0 -7 5 -4 10 3 6 8 10 11 10 2 0 4 -4 4 -10z m35 0 c3 -5 1 -10 -4 -10
-6 0 -11 5 -11 10 0 6 2 10 4 10 3 0 8 -4 11 -10z m-155 -40 c0 -5 -2 -10 -4
-10 -3 0 -8 5 -11 10 -3 6 -1 10 4 10 6 0 11 -4 11 -10z m40 6 c0 -3 -4 -8
-10 -11 -5 -3 -10 -1 -10 4 0 6 5 11 10 11 6 0 10 -2 10 -4z m-175 -26 c3 -6
-1 -7 -9 -4 -18 7 -21 14 -7 14 6 0 13 -4 16 -10z m168 -15 c-3 -9 -8 -14 -10
-11 -3 3 -2 9 2 15 9 16 15 13 8 -4z m-193 -45 c0 -5 -5 -10 -11 -10 -5 0 -7
5 -4 10 3 6 8 10 11 10 2 0 4 -4 4 -10z"/>
</g>
</svg>
